<svg width="21" height="21" viewBox="0 0 21 21" fill="none" xmlns="http://www.w3.org/2000/svg">
<g clip-path="url(#clip0_1_1192)">
<path d="M11.4844 -0.000295893C16.7385 -0.000295893 21 4.26123 21 9.51533C21 10.0608 20.5611 10.4997 20.0156 10.4997C19.4701 10.4997 19.0312 10.0608 19.0312 9.51533C19.0312 5.34814 15.6516 1.96845 11.4844 1.96845C10.9389 1.96845 10.5 1.52959 10.5 0.984079C10.5 0.438571 10.9389 -0.000295893 11.4844 -0.000295893ZM11.8125 7.8747C12.1606 7.8747 12.4944 8.01299 12.7406 8.25913C12.9867 8.50527 13.125 8.83911 13.125 9.1872C13.125 9.5353 12.9867 9.86914 12.7406 10.1153C12.4944 10.3614 12.1606 10.4997 11.8125 10.4997C11.4644 10.4997 11.1306 10.3614 10.8844 10.1153C10.6383 9.86914 10.5 9.5353 10.5 9.1872C10.5 8.83911 10.6383 8.50527 10.8844 8.25913C11.1306 8.01299 11.4644 7.8747 11.8125 7.8747ZM10.5 4.92158C10.5 4.37607 10.9389 3.9372 11.4844 3.9372C14.5646 3.9372 17.0625 6.43506 17.0625 9.51533C17.0625 10.0608 16.6236 10.4997 16.0781 10.4997C15.5326 10.4997 15.0938 10.0608 15.0938 9.51533C15.0938 7.52197 13.4777 5.90595 11.4844 5.90595C10.9389 5.90595 10.5 5.46709 10.5 4.92158ZM4.81934 0.057126C5.61504 -0.160257 6.44766 0.245798 6.76348 1.00869L8.4041 4.94619C8.68301 5.61474 8.49023 6.38994 7.92832 6.84521L5.90625 8.50224C7.27207 11.3897 9.60996 13.7276 12.4975 15.0935L14.1504 13.0714C14.6098 12.5095 15.3809 12.3167 16.0494 12.5956L19.9869 14.2362C20.7498 14.552 21.1559 15.3847 20.9385 16.1804L19.9541 19.7897C19.7613 20.5034 19.1133 20.9997 18.375 20.9997C8.22773 20.9997 0 12.772 0 2.6247C0 1.88642 0.496289 1.23838 1.20996 1.0415L4.81934 0.057126Z" fill="white"/>
</g>
<defs>
<clipPath id="clip0_1_1192">
<rect width="21" height="21" fill="white"/>
</clipPath>
</defs>
</svg>
